<?xml version="1.0" encoding="UTF-8" standalone="no"?>
<svg
   xmlns:dc="http://purl.org/dc/elements/1.1/"
   xmlns:cc="http://creativecommons.org/ns#"
   xmlns:rdf="http://www.w3.org/1999/02/22-rdf-syntax-ns#"
   xmlns:svg="http://www.w3.org/2000/svg"
   xmlns="http://www.w3.org/2000/svg"
   xmlns:sodipodi="http://sodipodi.sourceforge.net/DTD/sodipodi-0.dtd"
   xmlns:inkscape="http://www.inkscape.org/namespaces/inkscape"
   sodipodi:docname="Textures.svg"
   inkscape:version="1.0 (4035a4fb49, 2020-05-01)"
   id="svg8"
   version="1.1"
   viewBox="0 0 210 297"
   height="297mm"
   width="210mm"
   inkscape:export-filename="C:\JuegosUnity\GMTK Game Jam 2021\Assets\Sprites\Ghost.png"
   inkscape:export-xdpi="105.40022"
   inkscape:export-ydpi="105.40022">
  <defs
     id="defs2">
    <rect
       id="rect1076"
       height="71.58659"
       width="137.63099"
       y="-442.45131"
       x="-1003.8287" />
  </defs>
  <sodipodi:namedview
     showguides="false"
     inkscape:snap-bbox-midpoints="true"
     inkscape:snap-bbox-edge-midpoints="true"
     inkscape:bbox-nodes="true"
     inkscape:snap-page="true"
     inkscape:snap-center="true"
     inkscape:snap-object-midpoints="true"
     inkscape:snap-midpoints="true"
     inkscape:snap-smooth-nodes="true"
     inkscape:object-paths="true"
     inkscape:snap-intersection-paths="true"
     inkscape:bbox-paths="true"
     inkscape:snap-bbox="true"
     inkscape:snap-global="false"
     inkscape:window-maximized="1"
     inkscape:window-y="-8"
     inkscape:window-x="-8"
     inkscape:window-height="1377"
     inkscape:window-width="2560"
     showborder="false"
     showgrid="false"
     inkscape:document-rotation="0"
     inkscape:current-layer="layer1"
     inkscape:document-units="mm"
     inkscape:cy="-1203.7992"
     inkscape:cx="1996.1043"
     inkscape:zoom="1.3125032"
     inkscape:pageshadow="2"
     inkscape:pageopacity="0"
     borderopacity="1.0"
     bordercolor="#666666"
     pagecolor="#1f1f1f"
     id="base">
    <sodipodi:guide
       id="guide3156"
       orientation="1,0"
       position="22.819535,484.0059" />
  </sodipodi:namedview>
  <metadata
     id="metadata5">
    <rdf:RDF>
      <cc:Work
         rdf:about="">
        <dc:format>image/svg+xml</dc:format>
        <dc:type
           rdf:resource="http://purl.org/dc/dcmitype/StillImage" />
        <dc:title />
      </cc:Work>
    </rdf:RDF>
  </metadata>
  <g
     id="layer1"
     inkscape:groupmode="layer"
     inkscape:label="Capa 1">
    <rect
       transform="scale(-1,1)"
       inkscape:export-ydpi="56.31147"
       inkscape:export-xdpi="56.31147"
       ry="0"
       rx="0"
       y="-304.84943"
       x="-573.22571"
       height="42.009029"
       width="215.53134"
       id="rect937"
       style="fill:none;fill-opacity:0;stroke:#000000;stroke-width:10;stroke-linecap:round;stroke-miterlimit:4;stroke-dasharray:none;stroke-opacity:1" />
    <rect
       style="fill:#ffc9ae;fill-opacity:0.14902;stroke:#ffccb2;stroke-width:6;stroke-linecap:round;stroke-miterlimit:4;stroke-dasharray:none;stroke-opacity:1"
       id="rect935"
       width="215.53134"
       height="42.009029"
       x="-573.22571"
       y="-304.84943"
       rx="0"
       ry="0"
       inkscape:export-xdpi="56.31147"
       inkscape:export-ydpi="56.31147"
       transform="scale(-1,1)" />
    <rect
       style="fill:none;fill-opacity:0.15000001;stroke:#000000;stroke-width:9.5;stroke-linecap:round;stroke-miterlimit:4;stroke-dasharray:none;stroke-opacity:1"
       id="rect1053"
       width="52.916668"
       height="52.916668"
       x="21.26545"
       y="-73.492767"
       rx="0"
       ry="0"
       inkscape:export-xdpi="61.041386"
       inkscape:export-ydpi="61.041386"
       transform="scale(-1,1)" />
    <rect
       style="fill:none;fill-opacity:0.15000001;stroke:#000000;stroke-width:9.5;stroke-linecap:round;stroke-miterlimit:4;stroke-dasharray:none;stroke-opacity:1"
       id="rect1032"
       width="52.916668"
       height="52.916668"
       x="71.477097"
       y="1.4436855"
       rx="0"
       ry="0"
       inkscape:export-xdpi="61.041386"
       inkscape:export-ydpi="61.041386" />
    <rect
       inkscape:export-ydpi="61.04137"
       inkscape:export-xdpi="61.04137"
       ry="0"
       rx="0"
       y="1.4436886"
       x="144.3067"
       height="52.916668"
       width="52.916668"
       id="rect1034"
       style="fill:none;fill-opacity:0.15000001;stroke:#000000;stroke-width:9.5;stroke-linecap:round;stroke-miterlimit:4;stroke-dasharray:none;stroke-opacity:1" />
    <rect
       style="fill:none;fill-opacity:0.15000001;stroke:#000000;stroke-width:9.5;stroke-linecap:round;stroke-miterlimit:4;stroke-dasharray:none;stroke-opacity:1"
       id="rect1036"
       width="52.916668"
       height="52.916668"
       x="144.3067"
       y="-73.492744"
       rx="0"
       ry="0"
       inkscape:export-xdpi="61.04137"
       inkscape:export-ydpi="61.04137" />
    <rect
       style="fill:none;fill-opacity:0.15000001;stroke:#000000;stroke-width:9.5;stroke-linecap:round;stroke-miterlimit:4;stroke-dasharray:none;stroke-opacity:1"
       id="rect1038"
       width="52.916668"
       height="52.916668"
       x="-74.182121"
       y="1.4436899"
       rx="0"
       ry="0"
       inkscape:export-xdpi="61.041382"
       inkscape:export-ydpi="61.041382" />
    <rect
       transform="scale(-1,1)"
       inkscape:export-ydpi="61.041386"
       inkscape:export-xdpi="61.041386"
       ry="0"
       rx="0"
       y="-73.492775"
       x="-51.564159"
       height="52.916668"
       width="52.916668"
       id="rect1040"
       style="fill:none;fill-opacity:0.15000001;stroke:#000000;stroke-width:9.5;stroke-linecap:round;stroke-miterlimit:4;stroke-dasharray:none;stroke-opacity:1" />
    <rect
       transform="scale(-1,1)"
       inkscape:export-ydpi="61.041386"
       inkscape:export-xdpi="61.041386"
       ry="0"
       rx="0"
       y="-73.492775"
       x="-124.39376"
       height="52.916668"
       width="52.916668"
       id="rect1042"
       style="fill:none;fill-opacity:0.15000001;stroke:#000000;stroke-width:9.5;stroke-linecap:round;stroke-miterlimit:4;stroke-dasharray:none;stroke-opacity:1" />
    <rect
       inkscape:export-ydpi="61.041389"
       inkscape:export-xdpi="61.041389"
       ry="0"
       rx="0"
       y="1.4436926"
       x="-1.3525145"
       height="52.916668"
       width="52.916668"
       id="rect989"
       style="fill:none;fill-opacity:1;stroke:#000000;stroke-width:9.5;stroke-linecap:round;stroke-miterlimit:4;stroke-dasharray:none;stroke-opacity:1" />
    <path
       d="m 40.42314,-180.11283 v 52.91667 h 52.91667 v -52.91667 z"
       style="fill:none;fill-opacity:0.14902;stroke:#000000;stroke-width:9.5;stroke-linecap:round;stroke-miterlimit:4;stroke-dasharray:none;stroke-opacity:1"
       id="path985"
       inkscape:export-xdpi="61.041382"
       inkscape:export-ydpi="61.041382" />
    <path
       id="rect3098-8"
       style="fill:#ffc9ae;fill-opacity:0.14902;stroke:#ffccb2;stroke-width:5.5;stroke-linecap:round;stroke-miterlimit:4;stroke-dasharray:none;stroke-opacity:1"
       d="m 40.42314,-180.11283 v 52.91667 h 52.91667 v -52.91667 z"
       inkscape:export-xdpi="61.041382"
       inkscape:export-ydpi="61.041382" />
    <rect
       inkscape:export-ydpi="96"
       inkscape:export-xdpi="96"
       ry="0"
       rx="0"
       y="80.256828"
       x="75.569176"
       height="52.916668"
       width="52.916668"
       id="rect1056"
       style="fill:#ffffff;fill-opacity:1;stroke:none;stroke-width:0.399998;stroke-linecap:round;stroke-miterlimit:4;stroke-dasharray:none;stroke-opacity:1" />
    <text
       style="font-family:Kusanagi;font-size:10.58333333px;line-height:1.25;letter-spacing:0px;word-spacing:0px;-inkscape-font-specification:Kusanagi;white-space:pre;shape-inside:url(#rect1076);"
       id="text1074"
       xml:space="preserve" />
    <rect
       style="fill:#ffffff;fill-opacity:0.15000001;stroke:#ffffff;stroke-width:5.5;stroke-linecap:round;stroke-miterlimit:4;stroke-dasharray:none;stroke-opacity:1"
       id="rect1100"
       width="52.916668"
       height="52.916668"
       x="-1.3525145"
       y="1.4436926"
       rx="0"
       ry="0"
       inkscape:export-xdpi="61.041389"
       inkscape:export-ydpi="61.041389" />
    <path
       d="m -737.49743,-370.83316 -28.58671,16.50455 v -33.0091 z"
       sodipodi:type="star"
       style="fill:#ffffff;fill-opacity:1;stroke:#000000;stroke-width:2;stroke-linecap:round;stroke-miterlimit:4;stroke-dasharray:none;stroke-opacity:1"
       id="path1060-2"
       sodipodi:sides="3"
       sodipodi:cx="-756.55524"
       sodipodi:cy="-370.83316"
       sodipodi:r1="19.057808"
       sodipodi:r2="9.5289049"
       sodipodi:arg1="0"
       sodipodi:arg2="1.0471976"
       inkscape:flatsided="true"
       inkscape:rounded="0"
       inkscape:randomized="-1.13035e-14"
       inkscape:transform-center-x="-4.7644383"
       inkscape:transform-center-y="1.625044e-06"
       transform="translate(778.08094,398.73518)"
       inkscape:export-xdpi="61.041389"
       inkscape:export-ydpi="61.041389" />
    <rect
       inkscape:export-ydpi="61.041386"
       inkscape:export-xdpi="61.041386"
       ry="0"
       rx="0"
       y="1.4436855"
       x="71.477097"
       height="52.916668"
       width="52.916668"
       id="rect1117"
       style="fill:#ffffff;fill-opacity:0.15000001;stroke:#ffffff;stroke-width:5.5;stroke-linecap:round;stroke-miterlimit:4;stroke-dasharray:none;stroke-opacity:1" />
    <rect
       ry="0"
       rx="0"
       y="12.314627"
       x="82.578964"
       height="31.174803"
       width="10.391602"
       id="rect1133"
       style="fill:#ffffff;fill-opacity:1;stroke:#000000;stroke-width:2;stroke-linecap:round;stroke-miterlimit:4;stroke-dasharray:none;stroke-opacity:1"
       inkscape:export-xdpi="61.041386"
       inkscape:export-ydpi="61.041386" />
    <rect
       style="fill:#ffffff;fill-opacity:1;stroke:#000000;stroke-width:2;stroke-linecap:round;stroke-miterlimit:4;stroke-dasharray:none;stroke-opacity:1"
       id="rect1135"
       width="10.391602"
       height="31.174803"
       x="102.90031"
       y="12.314627"
       rx="0"
       ry="0"
       inkscape:export-xdpi="61.041386"
       inkscape:export-ydpi="61.041386" />
    <rect
       style="fill:#ffffff;fill-opacity:0.15000001;stroke:#ffffff;stroke-width:5.5;stroke-linecap:round;stroke-miterlimit:4;stroke-dasharray:none;stroke-opacity:1"
       id="rect1121"
       width="52.916668"
       height="52.916668"
       x="144.3067"
       y="1.4436886"
       rx="0"
       ry="0"
       inkscape:export-xdpi="61.04137"
       inkscape:export-ydpi="61.04137" />
    <circle
       r="4.3258672"
       cy="15.998287"
       cx="156.9003"
       id="path1168"
       style="fill:#ffffff;fill-opacity:1;stroke:#000000;stroke-width:2;stroke-linecap:round;stroke-miterlimit:4;stroke-dasharray:none;stroke-opacity:1"
       inkscape:export-xdpi="61.04137"
       inkscape:export-ydpi="61.04137" />
    <rect
       style="fill:#ffffff;fill-opacity:1;stroke:#000000;stroke-width:2;stroke-linecap:round;stroke-miterlimit:4;stroke-dasharray:none;stroke-opacity:1"
       id="rect1144"
       width="22.546446"
       height="6.990901"
       x="166.40921"
       y="24.406582"
       rx="0"
       ry="0"
       inkscape:export-xdpi="61.04137"
       inkscape:export-ydpi="61.04137" />
    <rect
       ry="0"
       rx="0"
       y="36.310329"
       x="166.40921"
       height="6.990901"
       width="22.546446"
       id="rect1148"
       style="fill:#ffffff;fill-opacity:1;stroke:#000000;stroke-width:2;stroke-linecap:round;stroke-miterlimit:4;stroke-dasharray:none;stroke-opacity:1"
       inkscape:export-xdpi="61.04137"
       inkscape:export-ydpi="61.04137" />
    <rect
       style="fill:#ffffff;fill-opacity:1;stroke:#000000;stroke-width:2;stroke-linecap:round;stroke-miterlimit:4;stroke-dasharray:none;stroke-opacity:1"
       id="rect1152"
       width="22.546446"
       height="6.990901"
       x="166.40921"
       y="12.502834"
       rx="0"
       ry="0"
       inkscape:export-xdpi="61.04137"
       inkscape:export-ydpi="61.04137" />
    <circle
       style="fill:#ffffff;fill-opacity:1;stroke:#000000;stroke-width:2;stroke-linecap:round;stroke-miterlimit:4;stroke-dasharray:none;stroke-opacity:1"
       id="circle1170"
       cx="156.9003"
       cy="39.805752"
       r="4.3258672"
       inkscape:export-xdpi="61.04137"
       inkscape:export-ydpi="61.04137" />
    <circle
       r="4.3258672"
       cy="27.902035"
       cx="156.9003"
       id="circle1172"
       style="fill:#ffffff;fill-opacity:1;stroke:#000000;stroke-width:2;stroke-linecap:round;stroke-miterlimit:4;stroke-dasharray:none;stroke-opacity:1"
       inkscape:export-xdpi="61.04137"
       inkscape:export-ydpi="61.04137" />
    <rect
       inkscape:export-ydpi="61.04137"
       inkscape:export-xdpi="61.04137"
       ry="0"
       rx="0"
       y="-73.492744"
       x="144.3067"
       height="52.916668"
       width="52.916668"
       id="rect1125"
       style="fill:#ffffff;fill-opacity:0.15000001;stroke:#ffffff;stroke-width:5.5;stroke-linecap:round;stroke-miterlimit:4;stroke-dasharray:none;stroke-opacity:1" />
    <path
       sodipodi:nodetypes="cccccccccccccc"
       id="path1192"
       d="m 153.33047,-32.07899 v -32.29149 h 33.96394 v 32.29149 h -15.96699 v 5.06887 l -8.90546,-7.6033 8.90546,-7.60329 v 5.06886 h 10.9496 V -58.88996 H 158.8139 v 26.81097 z"
       style="fill:#ffffff;fill-opacity:1;stroke:#000000;stroke-width:2;stroke-linecap:butt;stroke-linejoin:miter;stroke-miterlimit:4;stroke-dasharray:none;stroke-opacity:1"
       inkscape:export-xdpi="61.04137"
       inkscape:export-ydpi="61.04137" />
    <rect
       inkscape:export-ydpi="61.041382"
       inkscape:export-xdpi="61.041382"
       ry="0"
       rx="0"
       y="1.4436899"
       x="-74.182121"
       height="52.916668"
       width="52.916668"
       id="rect1218"
       style="fill:#ffffff;fill-opacity:0.15000001;stroke:#ffffff;stroke-width:5.5;stroke-linecap:round;stroke-miterlimit:4;stroke-dasharray:none;stroke-opacity:1" />
    <path
       d="M -29.323721,27.90202 -48.132088,43.00339 V 12.80066 Z"
       inkscape:transform-center-y="5.8926222e-06"
       inkscape:transform-center-x="-3.1347166"
       style="fill:#ffffff;fill-opacity:1;stroke:#000000;stroke-width:2;stroke-linecap:round;stroke-miterlimit:4;stroke-dasharray:none;stroke-opacity:1"
       id="path1226"
       inkscape:export-xdpi="61.041382"
       inkscape:export-ydpi="61.041382" />
    <path
       d="M -41.936093,27.90202 -62.948851,43.00339 V 12.80066 Z"
       inkscape:transform-center-y="5.8926222e-06"
       inkscape:transform-center-x="-3.5021106"
       style="fill:#ffffff;fill-opacity:1;stroke:#000000;stroke-width:2;stroke-linecap:round;stroke-miterlimit:4;stroke-dasharray:none;stroke-opacity:1"
       id="path1228"
       inkscape:export-xdpi="61.041382"
       inkscape:export-ydpi="61.041382" />
    <rect
       style="fill:#ffffff;fill-opacity:0.15000001;stroke:#ffffff;stroke-width:5.5;stroke-linecap:round;stroke-miterlimit:4;stroke-dasharray:none;stroke-opacity:1"
       id="rect1230"
       width="52.916668"
       height="52.916668"
       x="-51.564159"
       y="-73.492775"
       rx="0"
       ry="0"
       inkscape:export-xdpi="61.041386"
       inkscape:export-ydpi="61.041386"
       transform="scale(-1,1)" />
    <path
       sodipodi:nodetypes="cccccccc"
       id="path1236"
       d="m 43.871508,-53.046775 v 10.372427 H 21.876164 v 10.901596 L 4.68251,-47.860561 21.876164,-63.948371 v 10.901596 z"
       style="fill:#ffffff;fill-opacity:1;stroke:#000000;stroke-width:2;stroke-linecap:butt;stroke-linejoin:miter;stroke-miterlimit:4;stroke-dasharray:none;stroke-opacity:1"
       inkscape:export-xdpi="61.041386"
       inkscape:export-ydpi="61.041386" />
    <rect
       style="fill:#ffffff;fill-opacity:0.15000001;stroke:#ffffff;stroke-width:5.5;stroke-linecap:round;stroke-miterlimit:4;stroke-dasharray:none;stroke-opacity:1"
       id="rect3074"
       width="52.916668"
       height="52.916668"
       x="-124.39376"
       y="-73.492775"
       rx="0"
       ry="0"
       inkscape:export-xdpi="61.041386"
       inkscape:export-ydpi="61.041386"
       transform="scale(-1,1)" />
    <path
       inkscape:export-xdpi="61.041386"
       inkscape:export-ydpi="61.041386"
       id="rect3080"
       style="fill:#ffffff;fill-opacity:1;stroke:#000000;stroke-width:7.55906;stroke-linecap:round;stroke-miterlimit:4;stroke-dasharray:none;stroke-opacity:1"
       d="M 338.68359 -243.04492 L 304.87305 -209.23438 L 336.33984 -177.76758 L 304.87305 -146.30078 L 338.68359 -112.49023 L 370.15039 -143.95703 L 401.61719 -112.49023 L 435.42773 -146.30078 L 403.96094 -177.76758 L 435.42773 -209.23438 L 401.61719 -243.04492 L 370.15039 -211.57812 L 338.68359 -243.04492 z "
       transform="scale(0.26458333)" />
    <rect
       transform="scale(-1,1)"
       inkscape:export-ydpi="61.041386"
       inkscape:export-xdpi="61.041386"
       ry="0"
       rx="0"
       y="-73.492767"
       x="21.26545"
       height="52.916668"
       width="52.916668"
       id="rect3098"
       style="fill:#ffccb2;fill-opacity:0.15000001;stroke:#ffccb2;stroke-width:5.5;stroke-linecap:round;stroke-miterlimit:4;stroke-dasharray:none;stroke-opacity:1" />
    <path
       inkscape:export-ydpi="65.221107"
       inkscape:export-xdpi="65.221107"
       d="m -193.47016,-87.167859 c -6.52573,0 -11.84824,5.32357 -11.84824,11.8493 0,0.589372 0.0449,1.168612 0.12867,1.735332 h -3.12917 v 22.26905 h 29.69819 v -22.26905 h -3.15781 c 0.0694,-0.46904 0.11462,-0.94575 0.12726,-1.430602 a 1.5446142,1.5446142 0 0 0 0.0308,-0.29801 1.5446142,1.5446142 0 0 0 0,-0.007 1.5446142,1.5446142 0 0 0 -0.0308,-0.30472 c -0.16641,-6.38256 -5.39748,-11.54458 -11.8189,-11.54458 z m 0,3.0903 c 4.85437,0 8.7575,3.90004 8.76042,8.7537 v 0.005 c 0,0.594622 -0.0591,1.174682 -0.17074,1.735332 h -17.17795 c -0.11162,-0.56065 -0.17109,-1.14071 -0.17109,-1.735332 0,-4.85618 3.90317,-8.759 8.75936,-8.759 z m 3.6e-4,13.705172 c 0.007,-2e-5 0.0171,-1e-5 0.0205,0 2.02764,0.0114 3.66538,1.65826 3.66543,3.68594 3e-5,1.639 -1.08216,3.08114 -2.65584,3.53923 l 1.70246,8.16725 -5.46581,-6.8e-4 1.70104,-8.16689 c -1.57272,-0.45884 -2.65386,-1.90061 -2.65372,-3.53889 7e-5,-2.03565 1.65028,-3.68585 3.68594,-3.68593 z"
       style="fill:#ffffff;fill-opacity:1;stroke:none;stroke-width:0;stroke-linecap:round;stroke-miterlimit:4;stroke-dasharray:none;stroke-opacity:1"
       id="path3175" />
    <rect
       style="fill:#ffffff;fill-opacity:1;stroke:#000000;stroke-width:1.8;stroke-linecap:round;stroke-miterlimit:4;stroke-dasharray:none;stroke-opacity:1"
       id="rect927"
       width="21.660294"
       height="40.913887"
       x="-116.03128"
       y="-107.99868"
       rx="0"
       ry="0"
       inkscape:export-xdpi="97.520401"
       inkscape:export-ydpi="97.520401" />
    <rect
       ry="0"
       rx="0"
       y="-117.38482"
       x="-126.01909"
       height="13.236846"
       width="41.635899"
       id="rect929"
       style="fill:#ffffff;fill-opacity:1;stroke:#000000;stroke-width:1.8;stroke-linecap:round;stroke-miterlimit:4;stroke-dasharray:none;stroke-opacity:1"
       inkscape:export-xdpi="97.520401"
       inkscape:export-ydpi="97.520401" />
    <g
       id="g1047"
       transform="translate(-7.4151334,12.554205)">
      <path
         inkscape:export-ydpi="105.40022"
         inkscape:export-xdpi="105.40022"
         id="path1097"
         d="m -178.61151,-18.507083 c -0.60661,-0.166303 -1.38369,-0.600991 -1.77637,-0.993672 -0.69002,-0.690017 -1.01189,-1.490272 -1.0803,-2.685929 -0.0499,-0.871442 -0.12632,-0.929121 -0.51282,-0.38687 -0.44039,0.617841 -0.98885,1.267886 -1.51933,1.800745 -1.71101,1.718669 -3.27069,2.193544 -4.5465,1.384276 -0.24002,-0.152254 -0.35403,-0.290108 -0.52186,-0.631012 -0.18253,-0.370779 -0.21933,-0.527917 -0.24533,-1.047737 -0.0406,-0.810862 0.0879,-1.345103 0.54446,-2.265184 0.4359,-0.878344 1.02913,-1.681772 1.93264,-2.617436 l 0.67518,-0.699206 -0.53477,-0.218649 c -2.01809,-0.825126 -3.33194,-2.21325 -3.67566,-3.88347 -0.0983,-0.477622 -0.10161,-0.644753 -0.0289,-1.455209 0.22346,-2.489755 1.01074,-4.924172 2.17852,-6.736447 1.06291,-1.649518 3.21487,-4.064369 4.64627,-5.213877 1.34854,-1.082963 2.71283,-1.83399 3.88013,-2.135974 0.56494,-0.146152 0.75093,-0.164496 1.41136,-0.139197 1.20966,0.04634 2.33288,0.468791 3.77032,1.418059 1.58985,1.049921 3.13566,2.529442 4.71893,4.516562 1.17256,1.471646 1.82971,2.58858 2.37395,4.034896 0.55284,1.469192 0.97584,3.609415 0.97655,4.940986 7.9e-4,1.215951 -0.41389,2.151103 -1.3887,3.132747 -0.73601,0.741164 -1.62873,1.287665 -2.73351,1.673373 -0.10049,0.03508 -0.0117,0.159386 0.52917,0.741012 1.2626,1.357681 2.10102,2.674915 2.37621,3.733236 0.14749,0.567209 0.15026,1.386021 0.006,1.864225 -0.24651,0.818869 -0.88736,1.303991 -1.79995,1.362558 -0.72488,0.04652 -1.40189,-0.187392 -2.3139,-0.799469 -0.56079,-0.376356 -1.82955,-1.677592 -2.40684,-2.468446 -0.6496,-0.889925 -0.70522,-0.877928 -0.75233,0.162286 -0.0694,1.531241 -0.66102,2.55139 -1.86683,3.218764 -0.82093,0.454356 -1.60784,0.588238 -2.31613,0.394059 z"
         style="fill:#ffffff;fill-opacity:1;stroke:#333333;stroke-width:0.9;stroke-linecap:round;stroke-miterlimit:4;stroke-dasharray:none;stroke-opacity:1" />
      <path
         inkscape:export-ydpi="105.40022"
         inkscape:export-xdpi="105.40022"
         sodipodi:nodetypes="cszc"
         id="path1099"
         d="m -184.55077,-36.567168 c 0,0 2.75402,1.991954 5.38108,1.490978 0,0 0.6949,4.985032 -2.50008,3.82278 -3.19498,-1.162251 -2.881,-5.313758 -2.881,-5.313758 z"
         style="fill:#333333;fill-opacity:1;stroke:none;stroke-width:0;stroke-linecap:butt;stroke-linejoin:miter;stroke-miterlimit:4;stroke-dasharray:none;stroke-opacity:1" />
      <path
         inkscape:export-ydpi="105.40022"
         inkscape:export-xdpi="105.40022"
         style="fill:#333333;fill-opacity:1;stroke:none;stroke-width:0;stroke-linecap:butt;stroke-linejoin:miter;stroke-miterlimit:4;stroke-dasharray:none;stroke-opacity:1"
         d="m -171.34218,-36.567168 c 0,0 -2.75402,1.991954 -5.38108,1.490978 0,0 -0.6949,4.985032 2.50008,3.82278 3.19498,-1.162251 2.881,-5.313758 2.881,-5.313758 z"
         id="path1103"
         sodipodi:nodetypes="cszc" />
    </g>
    <circle
       style="opacity:1;fill:#ffffff;fill-opacity:1;stroke:#333333;stroke-width:1;stroke-linecap:round;stroke-linejoin:round;stroke-miterlimit:4;stroke-dasharray:none;stroke-opacity:1"
       id="path1298"
       cx="-141.89229"
       cy="-43.550648"
       r="14.552083" />
    <text
       inkscape:export-ydpi="84.03746"
       inkscape:export-xdpi="84.03746"
       id="text77"
       y="72.84288"
       x="-189.5457"
       style="font-size:37.4075px;line-height:1.25;font-family:'8-bit Operator+ SC';-inkscape-font-specification:'8-bit Operator+ SC';letter-spacing:0px;word-spacing:0px;fill:#ffffff;fill-opacity:1;stroke:#ffffff;stroke-width:1;stroke-miterlimit:4;stroke-dasharray:none;stroke-opacity:1"
       xml:space="preserve"><tspan
         style="fill:#ffffff;fill-opacity:1;stroke:#ffffff;stroke-width:1;stroke-miterlimit:4;stroke-dasharray:none;stroke-opacity:1"
         y="72.84288"
         x="-189.5457"
         id="tspan75"
         sodipodi:role="line">3</tspan></text>
    <text
       inkscape:export-ydpi="84.037483"
       inkscape:export-xdpi="84.037483"
       xml:space="preserve"
       style="font-size:37.4075px;line-height:1.25;font-family:'8-bit Operator+ SC';-inkscape-font-specification:'8-bit Operator+ SC';letter-spacing:0px;word-spacing:0px;fill:#ffffff;fill-opacity:1;stroke:#ffffff;stroke-width:1;stroke-miterlimit:4;stroke-dasharray:none;stroke-opacity:1"
       x="-188.59169"
       y="33.737198"
       id="text81"><tspan
         sodipodi:role="line"
         id="tspan79"
         x="-188.59169"
         y="33.737198"
         style="fill:#ffffff;fill-opacity:1;stroke:#ffffff;stroke-width:1;stroke-miterlimit:4;stroke-dasharray:none;stroke-opacity:1">2</tspan></text>
    <text
       inkscape:export-ydpi="84.037483"
       inkscape:export-xdpi="84.037483"
       id="text85"
       y="34.610374"
       x="-147.7704"
       style="font-size:37.4075px;line-height:1.25;font-family:'8-bit Operator+ SC';-inkscape-font-specification:'8-bit Operator+ SC';letter-spacing:0px;word-spacing:0px;fill:#ffffff;fill-opacity:1;stroke:#ffffff;stroke-width:1;stroke-miterlimit:4;stroke-dasharray:none;stroke-opacity:1"
       xml:space="preserve"><tspan
         style="fill:#ffffff;fill-opacity:1;stroke:#ffffff;stroke-width:1;stroke-miterlimit:4;stroke-dasharray:none;stroke-opacity:1"
         y="34.610374"
         x="-147.7704"
         id="tspan83"
         sodipodi:role="line">1</tspan></text>
    <text
       inkscape:export-ydpi="84.037483"
       inkscape:export-xdpi="84.037483"
       xml:space="preserve"
       style="font-size:37.4075px;line-height:1.25;font-family:'8-bit Operator+ SC';-inkscape-font-specification:'8-bit Operator+ SC';letter-spacing:0px;word-spacing:0px;fill:#ffffff;fill-opacity:1;stroke:#ffffff;stroke-width:1;stroke-miterlimit:4;stroke-dasharray:none;stroke-opacity:1"
       x="-149.07193"
       y="74.041962"
       id="text916"><tspan
         sodipodi:role="line"
         id="tspan914"
         x="-149.07193"
         y="74.041962"
         style="fill:#ffffff;fill-opacity:1;stroke:#ffffff;stroke-width:1;stroke-miterlimit:4;stroke-dasharray:none;stroke-opacity:1">0</tspan></text>
    <path
       inkscape:export-ydpi="183.83652"
       inkscape:export-xdpi="183.83652"
       id="path934"
       d="m -149.64165,-84.611279 13.84841,6.408301 -13.84841,6.408322"
       style="fill:#ffffff;fill-opacity:1;stroke:#333333;stroke-width:1;stroke-linecap:round;stroke-linejoin:miter;stroke-miterlimit:4;stroke-dasharray:none;stroke-opacity:1" />
    <g
       transform="translate(-328.41999,360.34972)"
       inkscape:export-ydpi="24.87434"
       inkscape:export-xdpi="24.87434"
       id="g1141">
      <g
         id="g1118">
        <path
           id="path1080"
           style="fill:#000000;fill-opacity:1;stroke:#000000;stroke-width:16;stroke-linecap:round;stroke-linejoin:round;stroke-miterlimit:4;stroke-dasharray:none;stroke-opacity:1"
           d="m 689.31831,-351.75352 8.11113,75.84343 a 8.2406634,8.2406634 0 0 1 0.14573,1.54203 8.2406634,8.2406634 0 0 1 -8.24084,8.24084 8.2406634,8.2406634 0 0 1 -8.24084,-8.24084 8.2406634,8.2406634 0 0 1 0.0708,-1.07745 h -0.007 z"
           inkscape:transform-center-x="-0.049067939"
           inkscape:transform-center-y="79.89184"
           inkscape:export-xdpi="20.408985"
           inkscape:export-ydpi="20.408985" />
        <path
           id="path1082"
           style="fill:#1c0000;fill-opacity:1;stroke:#000000;stroke-width:25;stroke-linecap:round;stroke-linejoin:round;stroke-miterlimit:4;stroke-dasharray:none;stroke-opacity:1"
           d="m 678.76072,-388.83221 a 10.524542,10.524542 0 0 0 10.52454,10.52454 10.524542,10.524542 0 0 0 10.52454,-10.52454 10.524542,10.524542 0 0 0 -10.52454,-10.52454 10.524542,10.524542 0 0 0 -10.52454,10.52454 z" />
        <path
           id="path1084"
           style="fill:none;fill-opacity:1;stroke:#000000;stroke-width:20;stroke-linecap:round;stroke-linejoin:round;stroke-miterlimit:4;stroke-dasharray:none;stroke-opacity:1"
           inkscape:transform-center-x="53.835063"
           inkscape:transform-center-y="53.964949"
           d="m 604.0413,-366.2688 a 88.409775,88.409775 0 0 0 62.8178,62.80308" />
        <path
           inkscape:transform-center-y="-0.049070001"
           inkscape:transform-center-x="-79.891838"
           d="m 726.36395,-388.86526 75.84343,-8.11113 a 8.2406634,8.2406634 0 0 1 1.54203,-0.14573 8.2406634,8.2406634 0 0 1 8.24084,8.24084 8.2406634,8.2406634 0 0 1 -8.24084,8.24084 8.2406634,8.2406634 0 0 1 -1.07745,-0.0708 v 0.007 z"
           style="fill:#000000;fill-opacity:1;stroke:#000000;stroke-width:16;stroke-linecap:round;stroke-linejoin:round;stroke-miterlimit:4;stroke-dasharray:none;stroke-opacity:1"
           id="path1086"
           inkscape:export-xdpi="20.408985"
           inkscape:export-ydpi="20.408985" />
        <path
           id="path1088"
           style="fill:#000000;fill-opacity:1;stroke:#000000;stroke-width:16;stroke-linecap:round;stroke-linejoin:round;stroke-miterlimit:4;stroke-dasharray:none;stroke-opacity:1"
           d="m 689.25221,-425.9109 -8.11113,-75.84343 a 8.2406634,8.2406634 0 0 1 -0.14573,-1.54203 8.2406634,8.2406634 0 0 1 8.24084,-8.24084 8.2406634,8.2406634 0 0 1 8.24084,8.24084 8.2406634,8.2406634 0 0 1 -0.0708,1.07745 h 0.007 z"
           inkscape:transform-center-x="0.049072001"
           inkscape:transform-center-y="-79.89184"
           inkscape:export-xdpi="20.408985"
           inkscape:export-ydpi="20.408985" />
        <path
           inkscape:transform-center-y="0.049070001"
           inkscape:transform-center-x="79.891842"
           d="m 652.20657,-388.79916 -75.84343,8.11113 a 8.2406634,8.2406634 0 0 1 -1.54203,0.14573 8.2406634,8.2406634 0 0 1 -8.24084,-8.24084 8.2406634,8.2406634 0 0 1 8.24084,-8.24084 8.2406634,8.2406634 0 0 1 1.07745,0.0708 v -0.007 z"
           style="fill:#000000;fill-opacity:1;stroke:#000000;stroke-width:16;stroke-linecap:round;stroke-linejoin:round;stroke-miterlimit:4;stroke-dasharray:none;stroke-opacity:1"
           id="path1090"
           inkscape:export-xdpi="20.408985"
           inkscape:export-ydpi="20.408985" />
        <path
           id="path1092"
           style="fill:none;fill-opacity:1;stroke:#000000;stroke-width:20;stroke-linecap:round;stroke-linejoin:round;stroke-miterlimit:4;stroke-dasharray:none;stroke-opacity:1"
           inkscape:transform-center-x="-53.96495"
           inkscape:transform-center-y="53.835063"
           d="m 711.84867,-303.58825 a 88.409775,88.409775 0 0 0 62.80308,-62.8178" />
        <path
           id="path1094"
           style="fill:none;fill-opacity:1;stroke:#000000;stroke-width:20;stroke-linecap:round;stroke-linejoin:round;stroke-miterlimit:4;stroke-dasharray:none;stroke-opacity:1"
           inkscape:transform-center-x="-53.835064"
           inkscape:transform-center-y="-53.96495"
           d="M 774.52923,-411.39562 A 88.409775,88.409775 0 0 0 711.71142,-474.1987" />
        <path
           id="path1096"
           style="fill:none;fill-opacity:1;stroke:#000000;stroke-width:20;stroke-linecap:round;stroke-linejoin:round;stroke-miterlimit:4;stroke-dasharray:none;stroke-opacity:1"
           inkscape:transform-center-x="53.964949"
           inkscape:transform-center-y="-53.835064"
           d="m 666.72185,-474.07618 a 88.409775,88.409775 0 0 0 -62.80308,62.81781" />
      </g>
      <g
         id="g1107"
         transform="translate(317.89387,6.91074)">
        <path
           inkscape:export-ydpi="20.408985"
           inkscape:export-xdpi="20.408985"
           inkscape:transform-center-y="79.89184"
           inkscape:transform-center-x="-0.049067939"
           d="m 371.42444,-358.66426 8.11113,75.84343 a 8.2406634,8.2406634 0 0 1 0.14573,1.54203 8.2406634,8.2406634 0 0 1 -8.24084,8.24084 8.2406634,8.2406634 0 0 1 -8.24084,-8.24084 8.2406634,8.2406634 0 0 1 0.0708,-1.07745 h -0.007 z"
           style="fill:#ffccb2;fill-opacity:1;stroke:#ffccb2;stroke-width:9;stroke-linecap:round;stroke-linejoin:round;stroke-miterlimit:4;stroke-dasharray:none;stroke-opacity:1"
           id="path950" />
        <path
           d="m 360.86685,-395.74295 a 10.524542,10.524542 0 0 0 10.52454,10.52454 10.524542,10.524542 0 0 0 10.52454,-10.52454 10.524542,10.524542 0 0 0 -10.52454,-10.52454 10.524542,10.524542 0 0 0 -10.52454,10.52454 z"
           style="fill:#ffccb2;fill-opacity:1;stroke:#ffccb2;stroke-width:17;stroke-linecap:round;stroke-linejoin:round;stroke-miterlimit:4;stroke-dasharray:none;stroke-opacity:1"
           id="path960" />
        <path
           d="m 286.14743,-373.17954 a 88.409775,88.409775 0 0 0 62.8178,62.80308"
           inkscape:transform-center-y="53.964949"
           inkscape:transform-center-x="53.835063"
           style="fill:none;fill-opacity:1;stroke:#ffccb2;stroke-width:15;stroke-linecap:round;stroke-linejoin:round;stroke-miterlimit:4;stroke-dasharray:none;stroke-opacity:1"
           id="path962" />
        <path
           inkscape:export-ydpi="20.408985"
           inkscape:export-xdpi="20.408985"
           id="path968"
           style="fill:#ffccb2;fill-opacity:1;stroke:#ffccb2;stroke-width:9;stroke-linecap:round;stroke-linejoin:round;stroke-miterlimit:4;stroke-dasharray:none;stroke-opacity:1"
           d="m 408.47008,-395.776 75.84343,-8.11113 a 8.2406634,8.2406634 0 0 1 1.54203,-0.14573 8.2406634,8.2406634 0 0 1 8.24084,8.24084 8.2406634,8.2406634 0 0 1 -8.24084,8.24084 8.2406634,8.2406634 0 0 1 -1.07745,-0.0708 v 0.007 z"
           inkscape:transform-center-x="-79.891838"
           inkscape:transform-center-y="-0.049070001" />
        <path
           inkscape:export-ydpi="20.408985"
           inkscape:export-xdpi="20.408985"
           inkscape:transform-center-y="-79.89184"
           inkscape:transform-center-x="0.049072001"
           d="m 371.35834,-432.82164 -8.11113,-75.84343 a 8.2406634,8.2406634 0 0 1 -0.14573,-1.54203 8.2406634,8.2406634 0 0 1 8.24084,-8.24084 8.2406634,8.2406634 0 0 1 8.24084,8.24084 8.2406634,8.2406634 0 0 1 -0.0708,1.07745 h 0.007 z"
           style="fill:#ffccb2;fill-opacity:1;stroke:#ffccb2;stroke-width:9;stroke-linecap:round;stroke-linejoin:round;stroke-miterlimit:4;stroke-dasharray:none;stroke-opacity:1"
           id="path970" />
        <path
           inkscape:export-ydpi="20.408985"
           inkscape:export-xdpi="20.408985"
           id="path972"
           style="fill:#ffccb2;fill-opacity:1;stroke:#ffccb2;stroke-width:9;stroke-linecap:round;stroke-linejoin:round;stroke-miterlimit:4;stroke-dasharray:none;stroke-opacity:1"
           d="m 334.3127,-395.7099 -75.84343,8.11113 a 8.2406634,8.2406634 0 0 1 -1.54203,0.14573 8.2406634,8.2406634 0 0 1 -8.24084,-8.24084 8.2406634,8.2406634 0 0 1 8.24084,-8.24084 8.2406634,8.2406634 0 0 1 1.07745,0.0708 v -0.007 z"
           inkscape:transform-center-x="79.891842"
           inkscape:transform-center-y="0.049070001" />
        <path
           d="m 393.9548,-310.49899 a 88.409775,88.409775 0 0 0 62.80308,-62.8178"
           inkscape:transform-center-y="53.835063"
           inkscape:transform-center-x="-53.96495"
           style="fill:none;fill-opacity:1;stroke:#ffccb2;stroke-width:15;stroke-linecap:round;stroke-linejoin:round;stroke-miterlimit:4;stroke-dasharray:none;stroke-opacity:1"
           id="path974" />
        <path
           d="m 456.63536,-418.30636 a 88.409775,88.409775 0 0 0 -62.81781,-62.80308"
           inkscape:transform-center-y="-53.96495"
           inkscape:transform-center-x="-53.835064"
           style="fill:none;fill-opacity:1;stroke:#ffccb2;stroke-width:15;stroke-linecap:round;stroke-linejoin:round;stroke-miterlimit:4;stroke-dasharray:none;stroke-opacity:1"
           id="path976" />
        <path
           d="m 348.82798,-480.98692 a 88.409775,88.409775 0 0 0 -62.80308,62.81781"
           inkscape:transform-center-y="-53.835064"
           inkscape:transform-center-x="53.964949"
           style="fill:none;fill-opacity:1;stroke:#ffccb2;stroke-width:15;stroke-linecap:round;stroke-linejoin:round;stroke-miterlimit:4;stroke-dasharray:none;stroke-opacity:1"
           id="path978" />
      </g>
    </g>
    <path
       style="color:#000000;font-style:normal;font-variant:normal;font-weight:normal;font-stretch:normal;font-size:medium;line-height:normal;font-family:sans-serif;font-variant-ligatures:normal;font-variant-position:normal;font-variant-caps:normal;font-variant-numeric:normal;font-variant-alternates:normal;font-variant-east-asian:normal;font-feature-settings:normal;font-variation-settings:normal;text-indent:0;text-align:start;text-decoration:none;text-decoration-line:none;text-decoration-style:solid;text-decoration-color:#000000;letter-spacing:normal;word-spacing:normal;text-transform:none;writing-mode:lr-tb;direction:ltr;text-orientation:mixed;dominant-baseline:auto;baseline-shift:baseline;text-anchor:start;white-space:normal;shape-padding:0;shape-margin:0;inline-size:0;clip-rule:nonzero;display:inline;overflow:visible;visibility:visible;isolation:auto;mix-blend-mode:normal;color-interpolation:sRGB;color-interpolation-filters:linearRGB;solid-color:#000000;solid-opacity:1;vector-effect:none;fill:#ffccb2;fill-opacity:1;fill-rule:nonzero;stroke:#000000;stroke-width:2.99363098;stroke-linecap:round;stroke-linejoin:miter;stroke-miterlimit:4;stroke-dasharray:none;stroke-dashoffset:0;stroke-opacity:1;color-rendering:auto;image-rendering:auto;shape-rendering:auto;text-rendering:auto;enable-background:accumulate;stop-color:#000000;stop-opacity:1;opacity:1"
       d="M -834.65234 -426.5957 L -834.65234 -377.83008 L -792.42188 -402.21289 L -798.03516 -405.45508 L -834.65234 -426.5957 z M -827.16992 -413.63281 L -807.39062 -402.21289 L -827.16992 -390.79297 L -827.16992 -413.63281 z "
       id="path1091"
       transform="matrix(0,-0.66232759,0.67389249,0,337.93017,-692.5887)"
       inkscape:export-xdpi="61.041382"
       inkscape:export-ydpi="61.041382" />
    <rect
       style="fill:#ffccb2;fill-opacity:1;stroke:#000000;stroke-width:2;stroke-linecap:round;stroke-miterlimit:4;stroke-dasharray:none;stroke-opacity:1"
       id="rect980"
       width="20.986948"
       height="20.986948"
       x="34.897743"
       y="-102.29588"
       rx="0"
       ry="0"
       inkscape:export-xdpi="66.298492"
       inkscape:export-ydpi="66.298492"
       transform="scale(-1,1)" />
    <rect
       transform="matrix(-0.70710678,-0.70710678,-0.70710678,0.70710678,0,0)"
       inkscape:export-ydpi="58.600121"
       inkscape:export-xdpi="58.600121"
       ry="0"
       rx="0"
       y="-159.42"
       x="127.82185"
       height="20.986948"
       width="20.986948"
       id="rect1063"
       style="fill:#ffccb2;fill-opacity:1;stroke:#000000;stroke-width:2;stroke-linecap:round;stroke-miterlimit:4;stroke-dasharray:none;stroke-opacity:1" />
    <rect
       transform="scale(-1,1)"
       inkscape:export-ydpi="61.041386"
       inkscape:export-xdpi="61.041386"
       ry="0"
       rx="0"
       y="-239.14948"
       x="-308.72565"
       height="52.916668"
       width="146.39494"
       id="rect1065"
       style="fill:none;fill-opacity:0.15;stroke:#000000;stroke-width:9.49999;stroke-linecap:round;stroke-miterlimit:4;stroke-dasharray:none;stroke-opacity:1" />
    <rect
       style="fill:#ffccb2;fill-opacity:0.15;stroke:#ffccb2;stroke-width:5.5;stroke-linecap:round;stroke-miterlimit:4;stroke-dasharray:none;stroke-opacity:1"
       id="rect1067"
       width="146.39494"
       height="52.916668"
       x="-308.72565"
       y="-239.14948"
       rx="0"
       ry="0"
       inkscape:export-xdpi="61.041386"
       inkscape:export-ydpi="61.041386"
       transform="scale(-1,1)" />
    <rect
       style="fill:#000000;fill-opacity:0.9;stroke:#ffffff;stroke-width:1.15452;stroke-linecap:round;stroke-miterlimit:4;stroke-dasharray:none;stroke-opacity:1"
       id="rect1216"
       width="76.491554"
       height="58.086018"
       x="-47.550541"
       y="74.755341"
       rx="0"
       ry="0"
       inkscape:export-xdpi="375.36945"
       inkscape:export-ydpi="375.36945" />
    <rect
       inkscape:export-ydpi="218.96846"
       inkscape:export-xdpi="218.96846"
       y="-196.53255"
       x="-87.493973"
       height="39.391197"
       width="39.391197"
       id="rect1157"
       style="fill:#261f26;fill-opacity:1;stroke:#261f26;stroke-width:20;stroke-linecap:round;stroke-linejoin:round;stroke-miterlimit:4;stroke-dasharray:none;stroke-opacity:1" />
    <g
       id="g1165">
      <rect
         style="fill:#268cff;fill-opacity:1;stroke:#000000;stroke-width:1.8;stroke-linecap:round;stroke-miterlimit:4;stroke-dasharray:none;stroke-opacity:1"
         id="rect1143"
         width="21.660294"
         height="40.913887"
         x="-82.981552"
         y="-192.60083"
         rx="0"
         ry="0"
         inkscape:export-xdpi="249.61212"
         inkscape:export-ydpi="249.61212" />
      <rect
         ry="0"
         rx="0"
         y="-201.98697"
         x="-92.96936"
         height="13.236846"
         width="41.635899"
         id="rect1145"
         style="fill:#268cff;fill-opacity:1;stroke:#000000;stroke-width:1.8;stroke-linecap:round;stroke-miterlimit:4;stroke-dasharray:none;stroke-opacity:1"
         inkscape:export-xdpi="249.61212"
         inkscape:export-ydpi="249.61212" />
      <path
         inkscape:export-ydpi="249.61212"
         inkscape:export-xdpi="249.61212"
         id="path1169"
         d="m -57.001814,-157.3064 c -1.84165,-0.40168 -3.51243,-1.67549 -4.39658,-3.35198 l -0.37418,-0.7095 -0.93545,0.91629 c -1.89504,1.85624 -3.39926,2.68169 -4.41919,2.42505 -0.54653,-0.13751 -1.16606,-0.7075 -1.42616,-1.31211 -0.485,-1.12741 -0.75005,-3.36233 -0.74862,-6.31232 10e-4,-2.14223 0.16444,-3.80252 0.56837,-5.77532 0.699251,-3.41503 1.75274,-6.26904 3.014751,-8.16717 1.48922,-2.23986 3.7357,-4.006 5.75699,-4.52603 1.11972,-0.28808 3.91951,-0.42154 6.0223,-0.28708 2.47063,0.15799 3.15147,0.35654 4.7289,1.3791 1.01232,0.65623 2.68449,2.32244 3.37298,3.36095 1.56288,2.35743 2.82992,6.21053 3.4452,10.47696 0.1196,0.82932 0.16272,1.75784 0.16506,3.55469 0.006,4.70266 -0.48829,6.8037 -1.75374,7.45245 -0.9764,0.50056 -2.20467,0.0398 -4.043481,-1.51685 -0.4133,-0.34988 -0.97149,-0.8688 -1.24042,-1.15316 l -0.488979,-0.51702 -0.269571,0.5333 c -0.148269,0.29332 -0.46041,0.79225 -0.69364,1.10874 -1.40297,1.90377 -4.02496,2.91384 -6.28454,2.42101 z"
         style="fill:#ff804d;fill-opacity:1;stroke:#000000;stroke-width:1;stroke-linecap:round;stroke-miterlimit:4;stroke-dasharray:none;stroke-opacity:1" />
      <path
         inkscape:export-ydpi="249.61212"
         inkscape:export-xdpi="249.61212"
         d="m -51.146113,-174.25693 a 5.820833,4.0348958 0 0 1 1.20226,2.45575 v 0 a 5.820833,4.0348958 0 0 1 -5.82083,4.0349 5.820833,4.0348958 0 0 1 -5.82086,-4.0349 5.820833,4.0348958 0 0 1 1.15348,-2.41103"
         style="fill:#ffffff;fill-opacity:1;stroke:#000000;stroke-width:1;stroke-linecap:round;stroke-linejoin:round;stroke-miterlimit:4;stroke-dasharray:none;stroke-opacity:1"
         id="path1245" />
      <path
         inkscape:export-ydpi="249.61212"
         inkscape:export-xdpi="249.61212"
         id="path1249"
         d="m -62.054763,-176.34337 a 0.6825,0.6825 0 0 0 -0.5586,0.29102 0.6825,0.6825 0 0 0 0.16602,0.95117 c 0,0 1.29564,0.89415 3.56055,1.33789 2.2649,0.44373 5.5569,0.46727 9.66015,-1.1211 a 0.6825,0.6825 0 0 0 0.38867,-0.88281 0.6825,0.6825 0 0 0 -0.88281,-0.38867 c -3.87139,1.49861 -6.87006,1.4509 -8.90234,1.05273 -2.032291,-0.39816 -3.041021,-1.11523 -3.041021,-1.11523 a 0.6825,0.6825 0 0 0 -0.390619,-0.125 z"
         style="color:#000000;font-style:normal;font-variant:normal;font-weight:normal;font-stretch:normal;font-size:medium;line-height:normal;font-family:sans-serif;font-variant-ligatures:normal;font-variant-position:normal;font-variant-caps:normal;font-variant-numeric:normal;font-variant-alternates:normal;font-variant-east-asian:normal;font-feature-settings:normal;font-variation-settings:normal;text-indent:0;text-align:start;text-decoration:none;text-decoration-line:none;text-decoration-style:solid;text-decoration-color:#000000;letter-spacing:normal;word-spacing:normal;text-transform:none;writing-mode:lr-tb;direction:ltr;text-orientation:mixed;dominant-baseline:auto;baseline-shift:baseline;text-anchor:start;white-space:normal;shape-padding:0;shape-margin:0;inline-size:0;clip-rule:nonzero;display:inline;overflow:visible;visibility:visible;isolation:auto;mix-blend-mode:normal;color-interpolation:sRGB;color-interpolation-filters:linearRGB;solid-color:#000000;solid-opacity:1;vector-effect:none;fill:#000000;fill-opacity:1;fill-rule:nonzero;stroke:none;stroke-width:1.365;stroke-linecap:round;stroke-linejoin:round;stroke-miterlimit:4;stroke-dasharray:none;stroke-dashoffset:0;stroke-opacity:1;color-rendering:auto;image-rendering:auto;shape-rendering:auto;text-rendering:auto;enable-background:accumulate;stop-color:#000000" />
      <path
         inkscape:export-ydpi="249.61212"
         inkscape:export-xdpi="249.61212"
         d="m -53.075304,-172.43298 a 2.6893997,2.3152223 0 0 1 -2.6894,2.31522 2.6893997,2.3152223 0 0 1 -2.6894,-2.31522 2.6893997,2.3152223 0 0 1 2.6894,-2.31523 2.6893997,2.3152223 0 0 1 2.6894,2.31523 z"
         style="fill:#000000;fill-opacity:1;stroke:none;stroke-width:0;stroke-linecap:round;stroke-linejoin:round;stroke-miterlimit:4;stroke-dasharray:none;stroke-opacity:1"
         id="path1243" />
    </g>
  </g>
</svg>
